<?xml version="1.0" standalone="no"?>
<!DOCTYPE svg PUBLIC "-//W3C//DTD SVG 20010904//EN"
 "http://www.w3.org/TR/2001/REC-SVG-20010904/DTD/svg10.dtd">
<svg version="1.0" xmlns="http://www.w3.org/2000/svg"
 width="576.000000pt" height="576.000000pt" viewBox="0 0 576.000000 576.000000"
 preserveAspectRatio="xMidYMid meet">
<metadata>
Created by potrace 1.11, written by Peter Selinger 2001-2013
</metadata>
<g transform="translate(0.000000,576.000000) scale(0.100000,-0.100000)"
fill="#000000" stroke="none">
<path d="M2189 5115 c-3 -2 -16 -5 -29 -7 -53 -8 -180 -93 -180 -120 0 -5 -6
-15 -12 -22 -13 -13 -21 -23 -80 -106 -17 -24 -35 -49 -40 -55 -4 -5 -25 -33
-45 -62 -21 -28 -46 -62 -55 -75 -9 -13 -97 -133 -194 -268 -98 -135 -182
-246 -186 -248 -4 -2 -8 -10 -8 -17 0 -7 -3 -15 -7 -17 -5 -1 -15 -13 -23 -24
-8 -12 -34 -49 -57 -82 -23 -33 -49 -66 -56 -74 -8 -7 -26 -31 -40 -53 -15
-22 -45 -65 -67 -95 -22 -30 -48 -66 -57 -80 -9 -14 -21 -29 -27 -35 -6 -5
-28 -35 -49 -65 -57 -84 -64 -91 -84 -91 -10 0 -43 0 -73 0 -30 0 -63 0 -72 0
-10 0 -52 0 -93 0 -41 0 -81 0 -87 0 -92 0 -147 0 -163 1 -11 1 -26 1 -32 1
-22 0 -122 0 -135 0 -52 1 -126 -30 -163 -69 -63 -66 -74 -103 -74 -249 0 -97
5 -143 16 -173 9 -22 20 -40 25 -40 4 0 8 -6 8 -13 0 -15 52 -56 94 -75 28
-12 92 -23 149 -24 15 -1 27 -4 28 -7 0 -3 2 -15 4 -26 2 -11 8 -58 15 -105 6
-47 13 -98 16 -115 13 -79 23 -154 29 -205 3 -25 7 -56 10 -70 2 -14 7 -45 10
-70 3 -25 10 -70 15 -100 5 -30 11 -73 14 -95 3 -22 7 -57 11 -78 3 -20 7 -53
10 -72 3 -19 7 -51 10 -70 3 -19 7 -51 10 -70 8 -53 13 -92 25 -180 6 -44 13
-91 15 -105 11 -71 14 -88 19 -125 3 -22 8 -60 11 -85 3 -25 7 -56 10 -70 10
-51 16 -93 20 -138 21 -243 214 -436 448 -447 38 -2 71 -6 73 -8 2 -2 26 -1
54 3 27 4 50 4 50 1 0 -3 26 -5 57 -4 32 1 58 2 58 3 0 1 28 2 63 3 34 1 62 0
62 -3 0 -3 26 -4 57 -3 32 1 58 2 58 3 0 1 28 2 63 3 34 1 62 0 62 -3 0 -3 26
-4 57 -3 32 1 58 2 58 3 0 1 28 2 63 3 34 1 62 0 62 -3 0 -3 26 -4 57 -3 32 1
58 2 58 3 0 1 28 2 63 3 34 1 62 0 62 -3 0 -3 26 -4 57 -3 32 1 58 2 58 3 0 1
28 2 63 3 34 1 62 0 62 -3 0 -3 26 -4 57 -3 32 1 58 2 58 3 0 1 28 2 63 3 34
1 62 0 62 -3 0 -3 26 -4 57 -3 32 1 58 2 58 3 0 1 28 2 63 3 34 1 62 0 62 -3
0 -3 26 -4 57 -3 32 1 58 2 58 3 0 1 28 2 63 3 34 1 62 0 62 -3 0 -3 26 -4 57
-3 32 1 58 2 58 3 0 1 28 2 63 3 34 1 62 0 62 -3 0 -3 26 -4 57 -3 32 1 58 2
58 3 0 1 28 2 63 3 34 1 62 0 62 -3 0 -3 26 -4 57 -3 32 1 58 2 58 3 0 1 28 2
63 3 34 1 62 0 62 -3 0 -3 26 -4 57 -3 32 1 58 2 58 3 0 1 28 2 63 3 34 1 62
0 62 -3 0 -3 26 -4 57 -3 32 1 58 2 58 3 0 1 28 2 63 3 34 1 62 0 62 -3 0 -3
26 -4 57 -3 32 1 58 2 58 3 0 1 28 2 63 3 34 1 62 -1 62 -4 0 -3 23 -3 50 1
28 4 50 3 50 -1 0 -5 6 -6 13 -4 6 2 37 6 67 9 30 3 62 7 70 9 61 16 81 23
123 45 26 14 47 30 47 34 0 4 5 8 11 8 16 0 95 84 123 133 43 73 54 112 81
287 2 14 6 45 9 70 3 25 8 54 10 65 2 11 7 43 10 70 14 112 22 163 31 215 5
28 15 109 20 155 2 17 8 57 14 90 10 57 12 76 27 190 3 28 8 59 10 69 2 11 8
56 14 100 6 45 13 92 16 106 3 14 7 41 9 60 2 19 6 49 9 65 3 17 8 53 12 80 3
28 8 61 10 75 2 14 7 45 9 70 3 25 7 56 10 70 5 34 17 110 21 135 1 11 3 22 3
25 1 3 16 7 34 8 150 11 209 41 267 141 23 41 25 297 2 350 -21 50 -73 106
-115 125 -50 22 -97 36 -97 28 0 -4 -53 -6 -117 -4 -65 2 -136 2 -158 1 -22 0
-46 -1 -52 0 -7 1 -19 1 -25 2 -14 1 -112 0 -168 -2 -19 -1 -42 -1 -50 0 -8 1
-36 1 -62 1 -34 -1 -52 4 -62 17 -15 18 -53 70 -164 223 -34 47 -65 90 -70 95
-4 6 -40 55 -80 110 -136 189 -231 320 -239 330 -5 6 -24 32 -43 60 -19 27
-40 56 -47 63 -7 7 -20 26 -30 42 -9 17 -21 30 -25 30 -4 0 -8 4 -8 10 0 5 -7
18 -15 27 -8 10 -44 59 -79 108 -36 50 -69 95 -73 100 -5 6 -19 26 -33 45
-201 290 -254 333 -410 334 -71 1 -93 -3 -135 -24 -117 -58 -188 -178 -181
-305 6 -101 21 -131 171 -327 19 -25 35 -49 35 -53 0 -3 6 -12 13 -19 13 -14
12 -12 127 -171 44 -60 87 -119 95 -130 9 -11 24 -32 33 -47 9 -16 20 -28 24
-28 4 0 8 -7 8 -15 0 -7 6 -18 13 -22 8 -4 22 -23 32 -40 11 -18 23 -33 27
-33 4 0 8 -6 8 -14 0 -8 4 -16 8 -18 4 -1 33 -39 64 -83 32 -44 61 -84 65 -90
5 -5 26 -35 48 -65 22 -30 42 -57 45 -60 3 -3 11 -15 18 -27 11 -21 10 -23
-10 -24 -13 -1 -27 -1 -32 0 -4 1 -94 2 -200 1 -105 0 -243 0 -306 1 -63 0
-133 -1 -155 -2 -22 0 -46 -1 -52 0 -7 1 -19 1 -25 2 -14 1 -112 0 -168 -2
-19 -1 -39 -1 -45 -1 -5 1 -100 1 -210 1 -110 1 -249 1 -310 2 -60 0 -117 0
-125 0 -8 -1 -33 -1 -55 0 -22 0 -44 0 -50 0 -5 0 -38 -2 -73 -3 -34 -2 -62
-1 -62 2 0 4 -101 4 -120 0 -3 0 -66 0 -140 0 -74 1 -147 1 -162 1 -32 -1 -34
2 -13 26 8 10 70 97 139 193 69 96 138 191 154 210 30 37 140 191 157 219 6 9
13 18 16 21 3 3 54 73 114 155 155 217 168 233 193 265 51 65 75 208 47 285
-32 90 -91 157 -170 194 -44 21 -174 39 -186 26z m-354 -2250 c68 -19 130 -80
150 -149 9 -30 15 -92 16 -156 0 -58 0 -112 0 -120 0 -8 0 -80 0 -160 0 -80 0
-152 1 -160 0 -8 -1 -33 -2 -55 -1 -35 -2 -232 -1 -290 1 -11 1 -42 0 -70 0
-27 -1 -95 -1 -150 -1 -80 -5 -107 -22 -138 -26 -49 -71 -97 -91 -97 -8 0 -15
-4 -15 -10 0 -15 -59 -28 -120 -25 -142 5 -234 114 -230 272 1 32 1 63 0 68
-1 6 -2 14 -1 19 1 5 2 34 1 65 0 31 -1 65 -1 76 0 11 0 70 0 130 0 61 0 144
1 185 1 41 1 82 1 90 0 8 0 47 0 85 0 39 0 93 0 120 0 28 0 88 -1 135 0 180
13 226 78 285 66 60 142 76 237 50z m1119 1 c55 -17 114 -66 141 -119 15 -30
28 -130 27 -207 -1 -39 -1 -239 0 -255 0 -5 -1 -30 -2 -55 -1 -25 -1 -97 -1
-160 0 -63 0 -122 0 -130 0 -21 0 -210 0 -235 2 -110 0 -206 -4 -223 -3 -12
-7 -31 -9 -42 -7 -32 -67 -109 -90 -116 -12 -4 -24 -11 -27 -16 -19 -30 -152
-32 -211 -4 -94 45 -141 136 -138 264 2 82 2 64 1 202 0 63 0 122 0 130 0 8 0
58 0 110 0 52 0 102 0 110 0 8 0 67 0 130 0 63 0 122 0 130 0 8 0 65 0 125 -1
162 3 197 28 246 27 53 47 72 98 98 68 34 113 38 187 17z m1146 -8 c43 -19 95
-70 116 -114 19 -40 24 -80 24 -194 -1 -47 -1 -110 -1 -140 0 -106 0 -215 -1
-225 0 -5 1 -26 2 -45 1 -35 2 -304 0 -370 0 -19 -1 -98 -3 -175 -2 -124 -5
-145 -25 -184 -42 -80 -123 -129 -210 -126 -75 2 -97 9 -141 42 -52 39 -67 61
-86 119 -15 48 -17 99 -15 334 1 41 1 82 1 90 0 8 0 47 0 85 0 39 0 90 0 115
0 95 0 256 0 275 0 11 0 49 0 85 -1 236 2 274 26 317 36 66 77 100 148 124 32
11 127 3 165 -13z"/>
</g>
</svg>
